<svg width="1514" height="887" viewBox="0 0 1514 887" fill="none" xmlns="http://www.w3.org/2000/svg">
<g clip-path="url(#clip0_2001_55)">
<path d="M226.184 1.79621C147.476 7.5114 76.6793 51.2734 35.4997 120.019C21.9084 142.553 16.4313 154.637 9.93991 176.681C0 209.339 0.202855 206.237 0 556.332V885.037H46.6567H93.3134V617.566C93.3134 441.049 94.1248 346.667 95.5448 339.645C101.225 310.906 127.393 287.066 161.067 279.881C174.861 276.942 199.204 276.942 214.012 280.044C227.806 282.983 256.003 293.434 268.58 300.129C273.043 302.741 353.171 348.136 446.282 401.043C539.392 454.112 673.277 530.206 743.464 570.049C813.855 610.055 904.126 661.492 944.291 684.352C984.456 707.213 1052.01 745.75 1094.4 769.754C1136.8 793.921 1179.2 818.251 1188.73 823.803C1281.23 878.505 1369.88 879.975 1435.4 828.375C1471.92 799.309 1494.03 763.222 1508.63 708.683C1512.08 695.62 1512.29 676.025 1512.89 347.32L1513.3 1.14441e-05H1466.64H1419.99L1419.78 73.8075C1419.78 114.467 1419.78 224.852 1419.99 319.234C1419.99 426.679 1419.38 494.282 1417.96 500.487C1413.29 523.674 1392.8 545.555 1366.03 556.169C1347.57 563.517 1331.74 564.987 1309.84 561.068C1279.41 555.516 1272.11 551.924 1129.9 469.462C1091.97 447.417 738.393 243.14 700.865 221.586C693.156 217.014 670.639 204.114 651.165 192.683C472.653 88.8303 365.951 27.7595 352.157 22.0443C313.614 5.7152 270 -1.30632 226.184 1.79621Z" fill="black"/>
<path d="M473.667 1.95947C548.926 11.4304 603.9 25.1468 670.639 51.2733C781.601 94.872 860.309 148.268 949.565 240.364C1003.12 295.393 1038.62 328.215 1083.86 363.486C1151.2 416.229 1207.19 442.519 1264.4 448.07L1273.93 449.05V224.525V-1.71661e-05L867.815 0.163274C607.551 0.326565 465.958 0.979729 473.667 1.95947Z" fill="black"/>
<path d="M243.426 647.449V886.67H674.899C912.037 886.67 1105.76 886.18 1104.95 885.69C1104.34 885.2 1096.64 884.057 1087.91 883.241C1032.53 877.689 958.288 858.421 895.606 833.274C786.064 789.185 696.199 729.747 605.726 641.734C521.135 559.435 495.981 536.248 457.439 505.222C401.653 460.154 363.719 437.62 315.846 420.964C296.371 414.106 266.957 408.227 252.149 408.227H243.426V647.449Z" fill="black"/>
</g>
<defs>
<clipPath id="clip0_2001_55">
<rect width="1513.33" height="886.667" fill="white"/>
</clipPath>
</defs>
</svg>
