<?xml version="1.0" standalone="no"?>
<!DOCTYPE svg PUBLIC "-//W3C//DTD SVG 20010904//EN"
 "http://www.w3.org/TR/2001/REC-SVG-20010904/DTD/svg10.dtd">
<svg version="1.0" xmlns="http://www.w3.org/2000/svg"
 width="1135.000000pt" height="665.000000pt" viewBox="0 0 1135.000000 665.000000"
 preserveAspectRatio="xMidYMid meet">

<g transform="translate(0.000000,665.000000) scale(0.100000,-0.100000)"
fill="#000000" stroke="none">
<path d="M2365 6009 c-388 -35 -737 -303 -940 -724 -67 -138 -94 -212 -126
-347 -49 -200 -48 -181 -49 -2325 l0 -2013 230 0 230 0 0 1638 c0 1081 4 1659
11 1702 28 176 157 322 323 366 68 18 188 18 261 -1 68 -18 207 -82 269 -123
22 -16 417 -294 876 -618 459 -325 1119 -791 1465 -1035 347 -245 792 -560
990 -700 198 -140 531 -376 740 -523 209 -148 418 -297 465 -331 456 -335 893
-344 1216 -28 180 178 289 399 361 733 17 80 18 200 21 2213 l2 2127 -230 0
-230 0 -1 -452 c0 -249 0 -925 1 -1503 0 -658 -3 -1072 -10 -1110 -23 -142
-124 -276 -256 -341 -91 -45 -169 -54 -277 -30 -150 34 -186 56 -887 561 -187
135 -1930 1386 -2115 1518 -38 28 -149 107 -245 177 -880 636 -1406 1010
-1474 1045 -190 100 -405 143 -621 124z"/>
<path d="M3585 6008 c371 -58 642 -142 971 -302 547 -267 935 -594 1375 -1158
264 -337 439 -538 662 -754 332 -323 608 -484 890 -518 l47 -6 0 1375 0 1375
-2002 -1 c-1283 -1 -1981 -5 -1943 -11z"/>
<path d="M2450 2055 l0 -1465 2127 0 c1169 0 2124 3 2120 6 -3 3 -41 10 -84
15 -273 34 -639 152 -948 306 -540 270 -983 634 -1429 1173 -417 504 -541 646
-731 836 -275 276 -462 414 -698 516 -96 42 -241 78 -314 78 l-43 0 0 -1465z"/>
</g>
</svg>
