<svg xmlns="http://www.w3.org/2000/svg" viewBox="0 0 400 300" fill="none" stroke="#94a3b8" stroke-width="2" stroke-linecap="round" stroke-linejoin="round">
  <rect x="20" y="20" width="100" height="260" rx="8" stroke-width="3"/>
  <line x1="40" y1="60" x2="100" y2="60"/>
  <line x1="40" y1="90" x2="100" y2="90"/>
  <line x1="40" y1="120" x2="80" y2="120"/>
  
  <rect x="140" y="20" width="240" height="120" rx="8" stroke-width="3"/>
  <path d="M160 110 L190 70 L240 90 L290 40 L350 80" stroke-width="3"/>
  <circle cx="160" cy="110" r="3" fill="#94a3b8"/>
  <circle cx="190" cy="70" r="3" fill="#94a3b8"/>
  <circle cx="240" cy="90" r="3" fill="#94a3b8"/>
  <circle cx="290" cy="40" r="3" fill="#94a3b8"/>
  <circle cx="350" cy="80" r="3" fill="#94a3b8"/>

  <rect x="140" y="160" width="110" height="120" rx="8" stroke-width="3"/>
  <path d="M160 250 L160 200 M195 250 L195 180 M230 250 L230 210" stroke-width="6"/>

  <rect x="270" y="160" width="110" height="120" rx="8" stroke-width="3"/>
  <circle cx="325" cy="220" r="30" stroke-width="4"/>
  <path d="M325 190 A30 30 0 0 1 355 220" stroke-width="8"/>
</svg>